<?xml version="1.0" encoding="utf-8"?>
<!-- Generator: Adobe Illustrator 25.4.1, SVG Export Plug-In . SVG Version: 6.00 Build 0)  -->
<svg version="1.1" id="objects" xmlns="http://www.w3.org/2000/svg" xmlns:xlink="http://www.w3.org/1999/xlink" x="0px" y="0px"
	 viewBox="0 0 536 77" style="enable-background:new 0 0 536 77;" xml:space="preserve">
<style type="text/css">
	.st0{fill:#D82323;}
	.st1{fill:#B50202;}
	.st2{fill:#595959;}
</style>
<circle class="st0" cx="24.73" cy="32.62" r="16.17"/>
<circle class="st1" cx="56.49" cy="26.37" r="16.17"/>
<polygon class="st0" points="13.54,44.29 40.89,68.15 40.89,53.54 27.21,39.9 "/>
<polyline class="st1" points="40.62,53.54 58.05,39.9 68.29,37.43 40.62,68.15 "/>
<g>
	<path class="st2" d="M133.35,21.46c2.87,1.54,5.14,3.6,6.82,6.19l-3.47,2.75c-3.15-4.63-7.44-6.94-12.86-6.94
		c-4.47,0-8.2,1.54-11.22,4.61s-4.52,6.9-4.52,11.48s1.51,8.41,4.52,11.48s6.75,4.61,11.22,4.61c5.42,0,9.71-2.31,12.86-6.94
		l3.47,2.75c-1.63,2.59-3.9,4.66-6.79,6.19s-6.09,2.3-9.6,2.3c-5.74,0-10.6-1.96-14.56-5.89s-5.95-8.76-5.95-14.5
		s1.98-10.58,5.95-14.5s8.82-5.89,14.56-5.89C127.29,19.16,130.48,19.93,133.35,21.46z"/>
	<path class="st2" d="M171.6,33.91c2.97,2.93,4.46,6.53,4.46,10.8c0,4.23-1.49,7.82-4.46,10.77s-6.59,4.43-10.86,4.43
		c-4.23-0.04-7.82-1.52-10.77-4.43s-4.43-6.5-4.43-10.77s1.48-7.87,4.43-10.8c2.95-2.93,6.56-4.4,10.83-4.4
		C165.03,29.51,168.63,30.97,171.6,33.91z M153.24,36.93c-2.01,2.11-3,4.73-2.96,7.84c0,3.11,1,5.7,2.99,7.78
		c1.99,2.07,4.49,3.11,7.48,3.11s5.5-1.05,7.54-3.14c2.03-2.09,3.05-4.68,3.05-7.75c0-3.15-1.01-5.77-3.02-7.87
		c-2.01-2.09-4.52-3.14-7.51-3.14C157.78,33.76,155.25,34.81,153.24,36.93z"/>
	<path class="st2" d="M207.88,47.69c0,3.67-1.15,6.63-3.44,8.88s-5.15,3.38-8.58,3.38c-3.47,0-6.35-1.13-8.64-3.38
		s-3.44-5.21-3.44-8.88V30.17h4.55v17.83c0,2.35,0.72,4.23,2.15,5.62c1.44,1.4,3.23,2.09,5.38,2.09c2.11,0,3.88-0.71,5.29-2.12
		s2.12-3.28,2.12-5.59V30.17h4.61V47.69z"/>
	<path class="st2" d="M243.26,33.88c2.73,2.91,4.1,6.52,4.1,10.83c0,4.35-1.37,7.98-4.1,10.89s-6.17,4.37-10.32,4.37
		c-2.15,0-4.19-0.43-6.1-1.29s-3.45-2.06-4.61-3.62v15.01h-4.61v-39.9h4.31v4.67c1.12-1.67,2.65-2.98,4.61-3.92s4.09-1.41,6.4-1.41
		C237.09,29.51,240.53,30.96,243.26,33.88z M239.67,52.6c1.97-2.07,2.96-4.69,2.96-7.84c0-3.19-0.98-5.82-2.93-7.9
		c-1.95-2.07-4.43-3.11-7.42-3.11c-2.79,0-5.17,0.93-7.15,2.78c-1.97,1.85-2.96,4.58-2.96,8.16s0.99,6.32,2.96,8.19
		c1.97,1.87,4.36,2.81,7.15,2.81C235.24,55.71,237.7,54.67,239.67,52.6z"/>
	<path class="st2" d="M260.04,59.3h-4.61V14.44h4.61V59.3z"/>
	<path class="st2" d="M295.87,46.14H272.9c0.28,2.87,1.41,5.18,3.38,6.94c1.97,1.75,4.4,2.63,7.27,2.63c3.31,0,6.28-1.32,8.91-3.95
		l2.69,3.11c-3.19,3.39-7.08,5.08-11.66,5.08c-4.39,0-8.05-1.46-11.01-4.37s-4.43-6.52-4.43-10.83c0-4.27,1.44-7.88,4.31-10.83
		s6.4-4.43,10.59-4.43c3.79,0,6.95,1.24,9.48,3.71s3.8,5.62,3.8,9.45C296.22,43.9,296.11,45.06,295.87,46.14z M276.49,36
		c-1.79,1.54-2.93,3.56-3.41,6.07h18.42c-0.04-2.59-0.89-4.64-2.54-6.13c-1.65-1.5-3.7-2.24-6.13-2.24S278.28,34.46,276.49,36z"/>
	<path class="st2" d="M322.84,34.12l-2.81,2.87c-2.07-2.15-4.47-3.23-7.18-3.23c-1.44,0-2.6,0.32-3.5,0.96
		c-0.9,0.64-1.35,1.54-1.35,2.69c0,0.96,0.36,1.72,1.08,2.3s1.93,1.23,3.65,1.94l2.69,1.14c2.71,1.16,4.67,2.38,5.89,3.68
		c1.22,1.3,1.82,2.94,1.82,4.93c0,2.71-0.99,4.81-2.96,6.31c-1.97,1.5-4.4,2.24-7.27,2.24c-4.75,0-8.53-1.89-11.36-5.68l2.93-3.05
		c2.83,2.99,5.62,4.49,8.37,4.49c1.59,0,2.92-0.37,3.98-1.11s1.58-1.74,1.58-3.02c0-1.16-0.4-2.04-1.2-2.66
		c-0.8-0.62-2.09-1.29-3.89-2l-2.81-1.2c-2.43-1.04-4.25-2.15-5.44-3.35c-1.2-1.2-1.79-2.77-1.79-4.73c0-2.55,0.94-4.55,2.81-5.98
		s4.21-2.15,7-2.15C317.12,29.51,320.37,31.04,322.84,34.12z"/>
</g>
<g>
	<path class="st2" d="M377.76,59.3L365.5,42.73h-8.43V59.3h-4.67V19.82h13.88c3.83,0,6.89,1.07,9.18,3.2s3.44,4.88,3.44,8.22
		c0,2.67-0.74,4.97-2.21,6.91s-3.49,3.28-6.04,4.04L383.2,59.3H377.76z M357.06,38.54h9.03c2.55,0,4.52-0.66,5.89-1.97
		s2.06-3.07,2.06-5.26c0-2.15-0.7-3.91-2.09-5.26c-1.4-1.36-3.35-2.03-5.86-2.03h-9.03V38.54z"/>
	<path class="st2" d="M414.07,46.14H391.1c0.28,2.87,1.41,5.18,3.38,6.94c1.97,1.75,4.4,2.63,7.27,2.63c3.31,0,6.28-1.32,8.91-3.95
		l2.69,3.11c-3.19,3.39-7.08,5.08-11.66,5.08c-4.39,0-8.05-1.46-11.01-4.37s-4.43-6.52-4.43-10.83c0-4.27,1.44-7.88,4.31-10.83
		s6.4-4.43,10.59-4.43c3.79,0,6.95,1.24,9.48,3.71s3.8,5.62,3.8,9.45C414.42,43.9,414.3,45.06,414.07,46.14z M394.69,36
		c-1.79,1.54-2.93,3.56-3.41,6.07h18.42c-0.04-2.59-0.89-4.64-2.54-6.13c-1.65-1.5-3.7-2.24-6.13-2.24S396.48,34.46,394.69,36z"/>
	<path class="st2" d="M441.04,34.12l-2.81,2.87c-2.07-2.15-4.47-3.23-7.18-3.23c-1.44,0-2.6,0.32-3.5,0.96
		c-0.9,0.64-1.35,1.54-1.35,2.69c0,0.96,0.36,1.72,1.08,2.3s1.93,1.23,3.65,1.94l2.69,1.14c2.71,1.16,4.67,2.38,5.89,3.68
		c1.22,1.3,1.82,2.94,1.82,4.93c0,2.71-0.99,4.81-2.96,6.31c-1.97,1.5-4.4,2.24-7.27,2.24c-4.75,0-8.53-1.89-11.36-5.68l2.93-3.05
		c2.83,2.99,5.62,4.49,8.37,4.49c1.59,0,2.92-0.37,3.98-1.11s1.58-1.74,1.58-3.02c0-1.16-0.4-2.04-1.2-2.66
		c-0.8-0.62-2.09-1.29-3.89-2l-2.81-1.2c-2.43-1.04-4.25-2.15-5.44-3.35c-1.2-1.2-1.79-2.77-1.79-4.73c0-2.55,0.94-4.55,2.81-5.98
		s4.21-2.15,7-2.15C435.32,29.51,438.57,31.04,441.04,34.12z"/>
	<path class="st2" d="M473.61,33.91c2.97,2.93,4.46,6.53,4.46,10.8c0,4.23-1.49,7.82-4.46,10.77s-6.59,4.43-10.86,4.43
		c-4.23-0.04-7.82-1.52-10.77-4.43s-4.43-6.5-4.43-10.77s1.48-7.87,4.43-10.8c2.95-2.93,6.56-4.4,10.83-4.4
		C467.04,29.51,470.64,30.97,473.61,33.91z M455.25,36.93c-2.01,2.11-3,4.73-2.96,7.84c0,3.11,1,5.7,2.99,7.78
		c1.99,2.07,4.49,3.11,7.48,3.11s5.5-1.05,7.54-3.14c2.03-2.09,3.05-4.68,3.05-7.75c0-3.15-1.01-5.77-3.02-7.87
		c-2.01-2.09-4.52-3.14-7.51-3.14C459.78,33.76,457.26,34.81,455.25,36.93z"/>
	<path class="st2" d="M501.63,30.17v4.07h-1.73c-2.51,0-4.67,0.76-6.46,2.27c-1.79,1.52-2.69,3.61-2.69,6.28V59.3h-4.61V30.17h4.31
		v4.19c2.19-2.95,5.2-4.43,9.03-4.43C500.12,29.93,500.83,30.01,501.63,30.17z"/>
	<path class="st2" d="M523.7,55.41v3.89c-1.83,0.44-3.45,0.66-4.84,0.66c-3.03,0-5.42-0.78-7.18-2.33
		c-1.75-1.56-2.63-3.93-2.63-7.12V34.29h-4.9v-4.13h4.9v-7.96h4.61v7.96h9.09v4.13h-9.09v15.91c0,2.07,0.53,3.52,1.58,4.34
		s2.58,1.23,4.58,1.23C520.93,55.77,522.23,55.65,523.7,55.41z"/>
</g>
</svg>
